<svg width="35" height="35" viewBox="0 0 35 35" fill="none" xmlns="http://www.w3.org/2000/svg">
<path d="M27.7083 4.375H7.29167C5.67292 4.375 4.375 5.6875 4.375 7.29167V27.7083C4.375 29.3125 5.67292 30.625 7.29167 30.625H27.7083C29.3125 30.625 30.625 29.3125 30.625 27.7083V7.29167C30.625 5.6875 29.3125 4.375 27.7083 4.375ZM16.0417 21.875H13.8542V18.9583H10.9375V21.875H8.75V13.125H10.9375V16.7708H13.8542V13.125H16.0417V21.875ZM18.9583 13.125H24.7917C25.5938 13.125 26.25 13.7813 26.25 14.5833V20.4167C26.25 21.2188 25.5938 21.875 24.7917 21.875H18.9583V13.125ZM21.1458 19.6875H24.0625V15.3125H21.1458V19.6875Z" fill="#6D6D6D"/>
</svg>
