<svg width="27" height="27" viewBox="0 0 27 27" fill="none" xmlns="http://www.w3.org/2000/svg">
<path d="M21.5325 14.553C21.573 14.2155 21.6 13.8645 21.6 13.5C21.6 13.1355 21.573 12.7845 21.519 12.447L23.8005 10.665C24.003 10.503 24.057 10.206 23.9355 9.97651L21.7755 6.23701C21.6405 5.99401 21.357 5.91301 21.114 5.99401L18.4275 7.07401C17.8605 6.64201 17.2665 6.29101 16.605 6.02101L16.2 3.15901C16.1595 2.88901 15.93 2.70001 15.66 2.70001H11.34C11.07 2.70001 10.854 2.88901 10.8135 3.15901L10.4085 6.02101C9.747 6.29101 9.1395 6.65551 8.586 7.07401L5.8995 5.99401C5.6565 5.89951 5.373 5.99401 5.238 6.23701L3.078 9.97651C2.943 10.2195 2.997 10.503 3.213 10.665L5.4945 12.447C5.4405 12.7845 5.4 13.149 5.4 13.5C5.4 13.851 5.427 14.2155 5.481 14.553L3.1995 16.335C2.997 16.497 2.943 16.794 3.0645 17.0235L5.2245 20.763C5.3595 21.006 5.643 21.087 5.886 21.006L8.5725 19.926C9.1395 20.358 9.7335 20.709 10.395 20.979L10.8 23.841C10.854 24.111 11.07 24.3 11.34 24.3H15.66C15.93 24.3 16.1595 24.111 16.1865 23.841L16.5915 20.979C17.253 20.709 17.8605 20.3445 18.414 19.926L21.1005 21.006C21.3435 21.1005 21.627 21.006 21.762 20.763L23.922 17.0235C24.057 16.7805 24.003 16.497 23.787 16.335L21.5325 14.553V14.553ZM13.5 17.55C11.2725 17.55 9.45 15.7275 9.45 13.5C9.45 11.2725 11.2725 9.45001 13.5 9.45001C15.7275 9.45001 17.55 11.2725 17.55 13.5C17.55 15.7275 15.7275 17.55 13.5 17.55Z" fill="white"/>
</svg>
