<svg width="27" height="27" viewBox="0 0 27 27" fill="none" xmlns="http://www.w3.org/2000/svg">
<path d="M3.375 5.625H5.625V3.375C4.3875 3.375 3.375 4.3875 3.375 5.625ZM3.375 14.625H5.625V12.375H3.375V14.625ZM7.875 23.625H10.125V21.375H7.875V23.625ZM3.375 10.125H5.625V7.875H3.375V10.125ZM14.625 3.375H12.375V5.625H14.625V3.375ZM21.375 3.375V5.625H23.625C23.625 4.3875 22.6125 3.375 21.375 3.375ZM5.625 23.625V21.375H3.375C3.375 22.6125 4.3875 23.625 5.625 23.625ZM3.375 19.125H5.625V16.875H3.375V19.125ZM10.125 3.375H7.875V5.625H10.125V3.375ZM12.375 23.625H14.625V21.375H12.375V23.625ZM21.375 14.625H23.625V12.375H21.375V14.625ZM21.375 23.625C22.6125 23.625 23.625 22.6125 23.625 21.375H21.375V23.625ZM21.375 10.125H23.625V7.875H21.375V10.125ZM21.375 19.125H23.625V16.875H21.375V19.125ZM16.875 23.625H19.125V21.375H16.875V23.625ZM16.875 5.625H19.125V3.375H16.875V5.625ZM7.875 19.125H19.125V7.875H7.875V19.125ZM10.125 10.125H16.875V16.875H10.125V10.125Z" fill="white"/>
</svg>
