<svg width="35" height="35" viewBox="0 0 35 35" fill="none" xmlns="http://www.w3.org/2000/svg">
<path d="M5.83334 15.3125C4.62293 15.3125 3.64584 16.2896 3.64584 17.5C3.64584 18.7104 4.62293 19.6875 5.83334 19.6875C7.04376 19.6875 8.02084 18.7104 8.02084 17.5C8.02084 16.2896 7.04376 15.3125 5.83334 15.3125ZM5.83334 6.5625C4.62293 6.5625 3.64584 7.53958 3.64584 8.75C3.64584 9.96042 4.62293 10.9375 5.83334 10.9375C7.04376 10.9375 8.02084 9.96042 8.02084 8.75C8.02084 7.53958 7.04376 6.5625 5.83334 6.5625ZM5.83334 24.0625C4.62293 24.0625 3.64584 25.0542 3.64584 26.25C3.64584 27.4458 4.63751 28.4375 5.83334 28.4375C7.02918 28.4375 8.02084 27.4458 8.02084 26.25C8.02084 25.0542 7.04376 24.0625 5.83334 24.0625ZM10.2083 27.7083H30.625V24.7917H10.2083V27.7083ZM10.2083 18.9583H30.625V16.0417H10.2083V18.9583ZM10.2083 7.29167V10.2083H30.625V7.29167H10.2083Z" fill="#B9B9B9"/>
</svg>
