<svg width="25" height="25" viewBox="0 0 25 25" fill="none" xmlns="http://www.w3.org/2000/svg">
<path d="M15.1979 8.33334L12.5 11.0313L9.80206 8.33334L8.33331 9.80209L11.0312 12.5L8.33331 15.1979L9.80206 16.6667L12.5 13.9688L15.1979 16.6667L16.6666 15.1979L13.9687 12.5L16.6666 9.80209L15.1979 8.33334ZM12.5 2.08334C6.73956 2.08334 2.08331 6.73959 2.08331 12.5C2.08331 18.2604 6.73956 22.9167 12.5 22.9167C18.2604 22.9167 22.9166 18.2604 22.9166 12.5C22.9166 6.73959 18.2604 2.08334 12.5 2.08334ZM12.5 20.8333C7.90623 20.8333 4.16665 17.0938 4.16665 12.5C4.16665 7.90625 7.90623 4.16667 12.5 4.16667C17.0937 4.16667 20.8333 7.90625 20.8333 12.5C20.8333 17.0938 17.0937 20.8333 12.5 20.8333Z" fill="#C44242"/>
</svg>
