<svg width="35" height="35" viewBox="0 0 35 35" fill="none" xmlns="http://www.w3.org/2000/svg">
<path d="M4.375 7.29167H7.29167V4.375C5.6875 4.375 4.375 5.6875 4.375 7.29167ZM4.375 18.9583H7.29167V16.0417H4.375V18.9583ZM10.2083 30.625H13.125V27.7083H10.2083V30.625ZM4.375 13.125H7.29167V10.2083H4.375V13.125ZM18.9583 4.375H16.0417V7.29167H18.9583V4.375ZM27.7083 4.375V7.29167H30.625C30.625 5.6875 29.3125 4.375 27.7083 4.375ZM7.29167 30.625V27.7083H4.375C4.375 29.3125 5.6875 30.625 7.29167 30.625ZM4.375 24.7917H7.29167V21.875H4.375V24.7917ZM13.125 4.375H10.2083V7.29167H13.125V4.375ZM16.0417 30.625H18.9583V27.7083H16.0417V30.625ZM27.7083 18.9583H30.625V16.0417H27.7083V18.9583ZM27.7083 30.625C29.3125 30.625 30.625 29.3125 30.625 27.7083H27.7083V30.625ZM27.7083 13.125H30.625V10.2083H27.7083V13.125ZM27.7083 24.7917H30.625V21.875H27.7083V24.7917ZM21.875 30.625H24.7917V27.7083H21.875V30.625ZM21.875 7.29167H24.7917V4.375H21.875V7.29167ZM10.2083 24.7917H24.7917V10.2083H10.2083V24.7917ZM13.125 13.125H21.875V21.875H13.125V13.125Z" fill="#D77171"/>
</svg>
